<?xml version="1.0" standalone="no"?>
<!DOCTYPE svg PUBLIC "-//W3C//DTD SVG 20010904//EN"
 "http://www.w3.org/TR/2001/REC-SVG-20010904/DTD/svg10.dtd">
<svg version="1.0" xmlns="http://www.w3.org/2000/svg"
 width="200.000000pt" height="200.000000pt" viewBox="0 0 200.000000 200.000000"
 preserveAspectRatio="xMidYMid meet">
<metadata>
Created by potrace 1.11, written by Peter Selinger 2001-2013
</metadata>
<g transform="translate(0.000000,200.000000) scale(0.100000,-0.100000)"
fill="#000000" stroke="none">
<path d="M880 1966 c0 -21 -4 -24 -27 -20 -16 2 -23 1 -18 -3 16 -11 17 -55 2
-46 -7 3 -4 -2 5 -13 16 -18 16 -22 3 -41 -11 -16 -12 -24 -4 -29 8 -5 9 -3 4
6 -5 9 -4 11 4 6 8 -6 9 -12 2 -20 -6 -7 -8 -16 -4 -20 4 -3 7 -15 8 -26 1
-16 -1 -17 -12 -8 -12 10 -12 7 -2 -15 10 -21 9 -30 -2 -44 -9 -11 -10 -14 -1
-9 6 4 12 4 13 -1 5 -53 4 -60 -11 -55 -13 5 -13 3 -1 -11 7 -9 18 -14 24 -10
6 4 7 1 3 -6 -5 -7 -14 -10 -21 -7 -7 2 -12 -3 -11 -12 1 -15 -16 -17 -159
-17 -88 -1 -166 -4 -173 -9 -6 -4 -12 -16 -12 -26 0 -10 -5 -22 -10 -25 -6 -4
-9 -3 -8 2 2 4 -1 8 -6 8 -6 0 -11 -10 -12 -23 -2 -15 1 -20 9 -15 9 5 8 2 0
-9 -7 -8 -10 -18 -6 -21 3 -4 0 -13 -7 -22 -11 -13 -10 -14 5 -9 14 6 16 4 9
-7 -12 -19 -12 -72 1 -81 5 -4 15 -2 21 3 8 7 14 6 19 -1 5 -8 10 -8 20 0 10
8 15 8 20 0 5 -8 10 -8 20 0 10 8 15 8 21 -1 5 -8 3 -9 -6 -4 -9 6 -11 4 -6
-4 6 -9 12 -8 26 4 14 12 20 13 26 4 5 -8 3 -10 -6 -4 -9 5 -11 4 -6 -4 6 -9
11 -9 22 0 21 18 74 20 67 3 -4 -10 0 -12 11 -8 9 3 14 9 12 13 -2 3 12 6 31
5 19 -1 39 -7 44 -15 7 -11 9 -11 9 4 0 9 5 17 11 17 5 0 7 -4 4 -10 -3 -5 1
-10 9 -10 9 0 16 -5 16 -11 0 -5 -4 -7 -10 -4 -7 4 -7 -3 0 -20 13 -34 13 -38
-2 -29 -7 4 -5 -1 4 -12 16 -18 16 -22 3 -41 -11 -16 -12 -24 -4 -29 8 -5 9
-3 4 6 -5 9 -4 11 4 6 8 -6 9 -12 2 -20 -6 -7 -8 -16 -4 -20 4 -3 7 -15 8 -26
1 -16 -1 -17 -12 -8 -12 10 -12 7 -2 -15 10 -21 9 -30 -2 -44 -9 -11 -10 -14
-1 -9 6 4 12 4 13 -1 5 -53 4 -60 -11 -55 -13 5 -13 3 -1 -11 7 -9 17 -15 20
-12 4 2 8 -2 8 -10 0 -11 -5 -12 -21 -3 -20 10 -20 10 -5 -8 27 -32 32 -44 15
-38 -9 3 -13 10 -10 15 3 5 0 9 -5 9 -16 0 -14 -11 6 -32 13 -15 14 -21 4 -31
-10 -9 -11 -8 -6 8 5 16 5 17 -3 5 -14 -19 5 -43 27 -35 9 3 5 -3 -8 -13 -18
-14 -22 -24 -16 -42 5 -17 4 -21 -6 -15 -8 5 -6 0 3 -11 16 -18 16 -22 3 -41
-11 -16 -12 -24 -4 -29 8 -5 9 -3 4 6 -5 9 -4 11 4 6 8 -6 9 -12 2 -20 -6 -7
-8 -16 -4 -20 4 -3 7 -15 8 -26 1 -16 -1 -17 -12 -8 -12 10 -12 7 -2 -15 10
-21 9 -30 -2 -44 -9 -11 -10 -14 -1 -9 6 4 12 4 13 -1 5 -53 4 -60 -11 -55
-13 5 -13 3 -1 -11 7 -9 17 -15 20 -12 4 2 8 -2 8 -10 0 -11 -5 -12 -21 -3
-20 10 -20 10 -5 -8 27 -32 32 -44 15 -38 -9 3 -13 10 -10 15 3 5 0 9 -5 9
-16 0 -13 -11 7 -33 9 -11 12 -17 6 -14 -15 9 -27 -20 -12 -29 7 -5 8 -2 3 6
-5 9 -4 11 4 6 8 -6 9 -12 2 -20 -6 -7 -8 -16 -4 -20 4 -3 7 -15 8 -26 1 -16
-1 -17 -12 -8 -12 10 -12 7 -2 -15 10 -21 9 -30 -2 -44 -9 -11 -10 -14 -1 -9
6 4 12 4 13 -1 5 -53 4 -60 -11 -55 -13 5 -13 3 -1 -11 7 -9 17 -15 20 -12 4
2 8 -2 8 -10 0 -11 -5 -12 -21 -3 -20 10 -20 10 -5 -8 27 -32 32 -44 15 -38
-9 3 -13 10 -10 15 3 5 0 9 -5 9 -16 0 -13 -11 7 -33 10 -13 11 -17 3 -12 -11
6 -13 4 -8 -8 3 -9 1 -18 -6 -21 -9 -3 -8 -5 1 -5 7 -1 11 -5 7 -10 -3 -6 4
-15 16 -21 12 -7 19 -8 15 -2 -3 6 8 10 30 9 20 -1 40 5 46 13 8 13 9 12 5 -2
-3 -9 0 -19 8 -22 9 -3 12 0 9 8 -3 8 0 17 7 22 8 4 10 3 5 -4 -4 -7 -1 -12 8
-12 8 0 17 -6 20 -12 3 -7 4 -4 3 7 -1 11 -6 24 -12 28 -6 6 -4 7 5 4 8 -2 25
-1 38 4 19 7 22 15 22 66 0 70 8 84 48 88 24 2 29 -1 24 -13 -4 -12 -1 -14 13
-9 16 7 16 5 4 -10 -9 -11 -10 -14 -1 -9 16 9 16 -6 0 -23 -11 -11 -8 -12 12
-7 24 7 24 6 6 -8 -20 -16 -33 -51 -15 -40 5 3 6 10 3 16 -4 7 -2 8 5 4 9 -6
8 -14 -4 -33 -16 -24 -16 -25 7 -18 22 7 22 6 4 -8 -19 -14 -19 -15 2 -26 12
-6 22 -9 22 -6 0 3 10 0 23 -6 19 -10 20 -10 10 2 -9 12 -4 14 35 11 35 -2 43
0 32 7 -8 6 -12 11 -7 12 4 1 10 2 15 3 4 1 15 6 25 12 16 9 17 24 15 135 l-3
124 -60 5 -59 5 -1 62 c-1 54 12 126 14 83 1 -13 2 -13 11 0 9 13 11 13 20 0
9 -14 15 -7 11 14 -1 5 5 3 14 -4 13 -11 15 -10 9 3 -4 12 2 18 20 23 l26 6 0
133 c0 86 -4 136 -11 141 -10 6 -48 7 -116 5 -16 -1 -23 -7 -23 -22 0 -16 -5
-20 -19 -16 -13 3 -18 0 -15 -8 3 -7 1 -16 -5 -20 -6 -3 -11 -12 -11 -18 0 -7
4 -6 10 3 8 12 10 10 10 -10 0 -14 1 -36 1 -49 0 -29 1 -28 -42 -35 -24 -3
-40 -1 -46 7 -12 14 -10 674 1 700 9 19 27 23 24 5 -2 -9 7 -12 26 -11 17 1
37 -3 45 -10 12 -9 13 -9 7 1 -4 7 -1 12 8 12 9 0 16 -5 16 -11 0 -5 5 -7 10
-4 6 4 7 12 3 18 -4 7 0 7 10 -1 9 -8 21 -11 27 -7 20 13 49 14 44 1 -3 -7 4
-12 15 -12 13 0 17 4 11 11 -9 11 49 13 66 2 6 -3 16 -2 24 4 10 6 11 9 3 9
-7 0 -13 5 -13 10 0 6 11 10 25 10 l25 0 0 100 c0 73 -3 100 -12 101 -7 0 -94
2 -193 2 l-180 2 -1 195 c-1 107 -2 203 -3 213 -1 15 -13 17 -96 17 -94 0 -95
0 -95 -24z m-390 -570 c0 -2 -7 -9 -15 -16 -13 -11 -14 -10 -9 4 5 14 24 23
24 12z m780 -50 c0 -2 -7 -7 -16 -10 -8 -3 -12 -2 -9 4 6 10 25 14 25 6z m-83
-611 c0 -8 -4 -12 -9 -9 -5 3 -6 10 -3 15 9 13 12 11 12 -6z m-317 -675 c0 -5
-5 -10 -11 -10 -5 0 -7 5 -4 10 3 6 8 10 11 10 2 0 4 -4 4 -10z"/>
</g>
</svg>
